<svg width="71" height="50" viewBox="0 0 71 50" fill="none" xmlns="http://www.w3.org/2000/svg">
<path d="M10.2531 25.0999L64.9244 12.7331L70.2283 36.1812L15.5571 48.5479L10.2531 25.0999Z" fill="#9AF6C1"/>
<path d="M25.4094 45.156L22.9751 45.7066L20.1118 33.0483L22.6972 32.4635L23.882 37.7013C24.0533 37.2627 24.3655 36.8744 24.8185 36.5366C25.2802 36.1851 25.8132 35.941 26.4176 35.8043C27.201 35.6271 27.9212 35.6642 28.5781 35.9156C29.2461 36.1645 29.8141 36.5949 30.2819 37.2065C30.7497 37.8185 31.0874 38.5833 31.295 39.5011C31.4899 40.3627 31.4886 41.1633 31.291 41.9022C31.1021 42.6269 30.7404 43.2382 30.2058 43.7356C29.6825 44.2307 29.0235 44.568 28.2288 44.7477C27.6469 44.8793 27.0886 44.8819 26.5542 44.7558C26.0284 44.6161 25.6106 44.3812 25.3007 44.051L25.4094 45.156ZM24.6165 40.8704C24.7102 41.2846 24.8777 41.6352 25.119 41.9218C25.3689 42.1947 25.6652 42.3862 26.008 42.4971C26.3593 42.594 26.7365 42.597 27.1394 42.5057C27.5535 42.4121 27.8858 42.2427 28.1363 41.9979C28.3979 41.7505 28.5717 41.4525 28.6575 41.1038C28.7545 40.7521 28.7562 40.3694 28.6624 39.9556C28.5688 39.5414 28.4026 39.1964 28.1638 38.9213C27.9362 38.6432 27.6511 38.449 27.3084 38.3381C26.9769 38.2249 26.6041 38.215 26.19 38.3089C25.7871 38.3999 25.4492 38.5703 25.1763 38.8203C24.9121 39.0566 24.7259 39.3517 24.6177 39.7056C24.5207 40.0569 24.5203 40.4452 24.6165 40.8704Z" fill="#27104A"/>
<path d="M32.3061 39.1666C32.1061 38.2824 32.1272 37.4659 32.3696 36.7171C32.6206 35.9544 33.0513 35.3099 33.6616 34.7836C34.2832 34.2548 35.0417 33.8891 35.937 33.6865C36.8324 33.484 37.6688 33.4889 38.4465 33.7013C39.2238 33.9137 39.8842 34.3113 40.4278 34.8942C40.9803 35.4634 41.3563 36.1901 41.5564 37.0743C41.7565 37.9584 41.7295 38.7764 41.4762 39.5278C41.2336 40.2767 40.8072 40.9142 40.197 41.4408C39.5865 41.967 38.8336 42.3312 37.9384 42.5339C37.0431 42.7365 36.201 42.7328 35.4123 42.5228C34.6349 42.3105 33.97 41.9197 33.4177 41.3505C32.8766 40.7788 32.5061 40.0507 32.3061 39.1666ZM34.9044 38.5612C35.0007 38.9865 35.1694 39.3426 35.4107 39.6292C35.6607 39.9021 35.957 40.094 36.2997 40.2046C36.6398 40.304 37.0113 40.3081 37.4144 40.2171C37.8171 40.1262 38.1506 39.9623 38.415 39.7261C38.6768 39.4787 38.8562 39.1791 38.9531 38.8278C39.0474 38.4654 39.0466 38.0712 38.9505 37.646C38.8543 37.2207 38.6868 36.8704 38.4479 36.5951C38.209 36.3196 37.9199 36.1322 37.5797 36.0326C37.2369 35.9219 36.864 35.9122 36.4611 36.0033C36.0582 36.0944 35.7259 36.2637 35.4642 36.5112C35.2 36.7474 35.0138 37.0425 34.9056 37.3964C34.8086 37.7477 34.8082 38.1359 34.9044 38.5612Z" fill="#27104A"/>
<path d="M46.593 40.5939C45.7088 40.794 44.9492 40.7126 44.3143 40.3506C43.6879 39.9745 43.2826 39.3781 43.0977 38.5608C42.9228 37.7887 43.0467 37.1135 43.469 36.5357C43.9024 35.9553 44.6138 35.512 45.6034 35.2059L47.912 34.4895L47.8817 34.3552C47.8185 34.0754 47.7105 33.8586 47.5581 33.7049C47.4032 33.5399 47.209 33.4367 46.9761 33.3953C46.752 33.3401 46.4831 33.348 46.1699 33.4189C45.6215 33.5429 45.2244 33.7386 44.9792 34.0059C44.7447 34.2706 44.6708 34.5933 44.7569 34.9738L42.6081 35.4599C42.4635 34.822 42.5005 34.2312 42.7187 33.6877C42.9372 33.1443 43.3137 32.6767 43.8487 32.2851C44.3949 31.891 45.065 31.604 45.8597 31.4243C46.6769 31.2395 47.398 31.2293 48.0233 31.3937C48.6601 31.5556 49.1871 31.8834 49.6049 32.3772C50.0335 32.8684 50.339 33.517 50.5213 34.3228L51.6303 39.225L49.3472 39.7416L48.9286 38.6714C48.8805 39.0822 48.6335 39.4735 48.1882 39.8447C47.7512 40.2023 47.2194 40.4519 46.593 40.5939ZM47.0663 38.475C47.5589 38.3637 47.9353 38.1548 48.1953 37.849C48.453 37.5317 48.5277 37.1327 48.4186 36.6514L48.3162 36.1981L47.0334 36.6118C46.4839 36.7832 46.1078 36.9682 45.9059 37.1667C45.7125 37.352 45.6459 37.5787 45.7069 37.8471C45.775 38.1492 45.9211 38.3519 46.144 38.4543C46.3674 38.5568 46.6747 38.5634 47.0663 38.475Z" fill="#27104A"/>
<path d="M57.3616 29.1045L57.9122 31.5388L57.0898 31.7249C56.351 31.892 55.8096 32.2027 55.4653 32.657C55.1321 33.1088 55.0593 33.7489 55.2464 34.5771L56.0707 38.2201L53.4851 38.8051L51.5903 30.4276L54.0246 29.877L54.6322 31.6277L54.3974 31.6809C54.3826 31.096 54.5309 30.5802 54.8415 30.1334C55.1606 29.6729 55.6617 29.3655 56.3447 29.211C56.5011 29.1756 56.6605 29.1513 56.8221 29.1383C56.9926 29.1115 57.1723 29.1002 57.3616 29.1045Z" fill="#27104A"/>
<path d="M63.8961 36.6796C63.0903 36.8618 62.3504 36.841 61.6763 36.617C61.0021 36.3931 60.4238 35.9945 59.9412 35.4213C59.4671 34.8344 59.1302 34.0988 58.9302 33.2147C58.7275 32.3193 58.7183 31.4979 58.9021 30.7504C59.0833 29.9917 59.439 29.3525 59.9682 28.8327C60.5092 28.3104 61.2048 27.953 62.0553 27.7606C62.5811 27.6416 63.0896 27.6267 63.5803 27.7156C64.0825 27.8021 64.4918 27.9742 64.8088 28.2319L63.6698 23.1954L66.255 22.6106L69.1183 35.2689L66.684 35.8196L66.3068 34.7755C66.1689 35.2067 65.8819 35.601 65.4452 35.9587C65.0169 36.3026 64.5007 36.5429 63.8961 36.6796ZM63.9819 34.1719C64.385 34.0808 64.7185 33.9171 64.9826 33.6809C65.2555 33.4309 65.4404 33.1302 65.5376 32.7789C65.643 32.4138 65.6493 32.0242 65.5554 31.6101C65.4592 31.1848 65.2862 30.8357 65.0362 30.5629C64.7973 30.2874 64.5022 30.1012 64.1509 30.0042C63.8085 29.8935 63.4353 29.8837 63.0326 29.9749C62.6296 30.066 62.2975 30.2353 62.0357 30.4827C61.7739 30.7302 61.5945 31.0296 61.4976 31.3809C61.4118 31.7297 61.4159 32.1112 61.5095 32.5253C61.603 32.9394 61.7639 33.2854 61.9913 33.5634C62.2302 33.8388 62.5209 34.0318 62.8637 34.1425C63.2064 34.2533 63.5792 34.2631 63.9819 34.1719Z" fill="#27104A"/>
<path d="M1.57016 4.02484L57.776 3.62555L57.9469 27.6654L1.74094 28.0647L1.57016 4.02484Z" fill="#9AF6C1"/>
<path d="M8.60898 17.3032C8.60351 16.5344 8.7995 15.856 9.19695 15.268C9.59433 14.6684 10.1418 14.1998 10.8394 13.8621C11.5484 13.5127 12.3561 13.3349 13.2626 13.3284C14.1806 13.3219 14.9735 13.477 15.6413 13.7935C16.3091 14.1101 16.8229 14.5597 17.1828 15.1424C17.5541 15.725 17.7426 16.4179 17.7484 17.2211L14.9772 17.2408C14.9741 16.7933 14.8167 16.4444 14.5051 16.1941C14.1934 15.9324 13.7736 15.8035 13.2458 15.8072C12.6835 15.8112 12.2311 15.9349 11.8886 16.1783C11.5576 16.4216 11.3935 16.7556 11.3966 17.1802C11.3993 17.5703 11.5047 17.8679 11.7128 18.073C11.9208 18.2781 12.2488 18.4249 12.697 18.5135L14.6103 18.8958C15.748 19.1172 16.5942 19.5129 17.149 20.0827C17.7038 20.641 17.9848 21.4251 17.992 22.4349C17.9977 23.2495 17.802 23.9681 17.4048 24.5906C17.0075 25.2016 16.4429 25.6761 15.7109 26.0141C14.9903 26.352 14.1424 26.5244 13.1671 26.5313C12.2261 26.538 11.3988 26.3832 10.6851 26.067C9.98287 25.7507 9.43461 25.3013 9.04034 24.7189C8.65742 24.1249 8.46317 23.432 8.45755 22.6403L11.2287 22.6206C11.2319 23.0796 11.4008 23.4341 11.7354 23.6842C12.0699 23.9343 12.547 24.0571 13.1667 24.0527C13.7977 24.0482 14.2961 23.9299 14.6617 23.6978C15.0271 23.4543 15.2084 23.1317 15.2056 22.73C15.2031 22.3743 15.1093 22.0996 14.9243 21.9058C14.7508 21.712 14.4515 21.5764 14.0264 21.4991L12.0786 21.117C10.941 20.8956 10.0773 20.4657 9.48753 19.8273C8.90925 19.1888 8.61638 18.3474 8.60898 17.3032Z" fill="#27104A"/>
<path d="M25.1941 17.6156L27.8448 17.5967L27.9059 26.2027L25.4102 26.2204L25.2312 25.2578C24.9698 25.6154 24.5932 25.9049 24.1013 26.1265C23.621 26.3479 23.1226 26.4605 22.6062 26.4641C21.6309 26.471 20.8542 26.1725 20.2761 25.5684C19.7095 24.9527 19.4224 24.1171 19.4149 23.0614L19.3765 17.6569L22.0272 17.6381L22.0587 22.0787C22.0637 22.7787 22.1936 23.2942 22.4484 23.6251C22.7031 23.9446 23.1001 24.1024 23.6394 24.0986C24.2131 24.0945 24.6194 23.9367 24.8581 23.6252C25.1083 23.3021 25.2309 22.7906 25.2259 22.0907L25.1941 17.6156Z" fill="#27104A"/>
<path d="M29.9237 30.3197L29.8332 17.5829L32.3289 17.5652L32.4741 18.6141C32.7122 18.2108 33.0828 17.8869 33.586 17.6423C34.0892 17.3977 34.6448 17.2733 35.253 17.269C36.0562 17.2633 36.7632 17.4361 37.374 17.7875C37.9845 18.1389 38.4645 18.6462 38.8132 19.3092C39.1623 19.9608 39.3398 20.7514 39.3464 21.6808C39.3531 22.5873 39.1982 23.3974 38.882 24.1111C38.5769 24.8132 38.1221 25.3673 37.5167 25.7732C36.9228 26.1791 36.1956 26.3851 35.335 26.3912C34.7383 26.3954 34.1868 26.2961 33.6805 26.0931C33.1741 25.8902 32.7936 25.6289 32.5389 25.3094L32.5743 30.3009L29.9237 30.3197ZM32.5316 21.8669C32.5346 22.2915 32.6234 22.6695 32.7979 23.0011C32.9837 23.3211 33.2322 23.5717 33.5434 23.7531C33.8659 23.923 34.2337 24.0064 34.6468 24.0035C35.0713 24.0005 35.4321 23.9061 35.7291 23.7204C36.0377 23.5346 36.2711 23.2805 36.4295 22.9581C36.5993 22.6355 36.6827 22.262 36.6797 21.8375C36.6767 21.4129 36.588 21.0406 36.4136 20.7205C36.2506 20.4004 36.0136 20.1496 35.7025 19.9682C35.4028 19.7867 35.0407 19.6975 34.6162 19.7005C34.2031 19.7035 33.8366 19.7979 33.5166 19.9837C33.208 20.1581 32.963 20.4065 32.7817 20.7291C32.6119 21.0516 32.5285 21.4309 32.5316 21.8669Z" fill="#27104A"/>
<path d="M44.8986 26.3058C44.0381 26.312 43.2678 26.1223 42.5881 25.737C41.9199 25.3516 41.3881 24.8218 40.9932 24.1475C40.6097 23.4618 40.4148 22.6771 40.4086 21.7935C40.4023 20.8985 40.5801 20.1112 40.9425 19.4316C41.3164 18.7404 41.8345 18.1974 42.4975 17.8026C43.1602 17.4077 43.922 17.2072 44.7825 17.2011C45.6888 17.1947 46.4706 17.3785 47.1273 17.7525C47.7841 18.115 48.2925 18.6392 48.6531 19.3252C49.0136 19.9997 49.1974 20.8074 49.2041 21.7483L49.2089 22.4195L41.8079 22.5065L41.8308 20.8712L46.5641 20.8376C46.5608 20.3786 46.4033 20.0182 46.0915 19.7565C45.7798 19.4833 45.3542 19.3486 44.815 19.3524C44.3676 19.3556 44.0007 19.4443 43.7152 19.6185C43.4409 19.7925 43.2364 20.0637 43.1014 20.4318C42.966 20.7885 42.9006 21.248 42.9047 21.8103C42.9102 22.6135 43.0751 23.209 43.3991 23.5969C43.7348 23.9732 44.2466 24.1588 44.9352 24.154C45.4399 24.1504 45.8582 24.0613 46.1899 23.8869C46.5212 23.7124 46.732 23.4699 46.8215 23.1594L49.2484 23.1422C49.1061 24.0956 48.6409 24.862 47.8532 25.4414C47.0656 26.0093 46.0808 26.2974 44.8986 26.3058Z" fill="#27104A"/>
<path d="M56.6645 17.3923L56.6823 19.888L55.8392 19.894C55.0818 19.8994 54.4865 20.0872 54.0527 20.4575C53.6308 20.8277 53.4229 21.4374 53.4288 22.2865L53.4555 26.0215L50.8048 26.0403L50.7438 17.4516L53.2395 17.4338L53.4592 19.2741L53.2181 19.2758C53.329 18.7012 53.5838 18.2289 53.9828 17.8589C54.3933 17.4773 54.9483 17.284 55.6483 17.279C55.8088 17.2779 55.9697 17.2882 56.1305 17.31C56.3025 17.3203 56.4807 17.3477 56.6645 17.3923Z" fill="#27104A"/>
</svg>
