<svg width="46" height="44" viewBox="0 0 46 44" fill="none" xmlns="http://www.w3.org/2000/svg">
<mask id="mask0_1_1023" style="mask-type:alpha" maskUnits="userSpaceOnUse" x="0" y="1" width="46" height="42">
<path d="M44.4479 16.5816C42.7694 13.2052 40.812 9.96238 38.5943 6.88377L37.879 5.90035C36.9983 4.67821 35.8441 3.65904 34.5002 2.91696C33.1563 2.17488 31.6562 1.72851 30.1094 1.61028L28.8536 1.51348C24.9573 1.21426 21.0425 1.21426 17.1464 1.51348L15.8905 1.61028C14.3437 1.72851 12.8438 2.17488 11.4998 2.91696C10.1559 3.65904 9.00162 4.67821 8.12098 5.90035L7.40566 6.89257C5.18801 9.97118 3.2306 13.214 1.55205 16.5904L1.01153 17.6772C0.345543 19.0177 0 20.4831 0 21.9673C0 23.4514 0.345543 24.9169 1.01153 26.2574L1.55205 27.3442C3.2306 30.7206 5.18801 33.9635 7.40566 37.042L8.12098 38.0342C9.00162 39.2563 10.1559 40.2756 11.4998 41.0177C12.8438 41.7597 14.3437 42.2061 15.8905 42.3243L17.1464 42.4211C21.0425 42.7203 24.9573 42.7203 28.8536 42.4211L30.1094 42.3243C31.6574 42.2046 33.1581 41.7562 34.5021 41.0117C35.8462 40.2672 36.9997 39.2455 37.879 38.021L38.5943 37.0288C40.812 33.9502 42.7694 30.7074 44.4479 27.331L44.9884 26.2442C45.6543 24.9037 46 23.4382 46 21.9541C46 20.4699 45.6543 19.0045 44.9884 17.664L44.4479 16.5816Z" fill="white"/>
</mask>
<g mask="url(#mask0_1_1023)">
<rect width="46" height="44" fill="#DFC9FF"/>
</g>
</svg>
