<svg width="45" height="42" viewBox="0 0 45 42" fill="none" xmlns="http://www.w3.org/2000/svg">
<mask id="mask0_1_959" style="mask-type:alpha" maskUnits="userSpaceOnUse" x="0" y="1" width="45" height="40">
<path d="M43.4817 15.5741C41.8396 12.4029 39.9248 9.35706 37.7553 6.46551L37.0555 5.54185C36.194 4.39396 35.0649 3.43671 33.7502 2.73973C32.4355 2.04273 30.968 1.62348 29.4549 1.51244L28.2264 1.42152C24.4148 1.14048 20.5851 1.14048 16.7736 1.42152L15.5451 1.51244C14.0318 1.62348 12.5645 2.04273 11.2498 2.73973C9.93507 3.43671 8.80593 4.39396 7.94444 5.54185L7.24467 6.47378C5.07522 9.36533 3.16037 12.4112 1.51831 15.5823L0.989545 16.6031C0.338031 17.8621 0 19.2386 0 20.6325C0 22.0265 0.338031 23.4029 0.989545 24.6619L1.51831 25.6827C3.16037 28.854 5.07522 31.8998 7.24467 34.7913L7.94444 35.7232C8.80593 36.8711 9.93507 37.8284 11.2498 38.5254C12.5645 39.2224 14.0318 39.6417 15.5451 39.7526L16.7736 39.8436C20.5851 40.1246 24.4148 40.1246 28.2264 39.8436L29.4549 39.7526C30.9692 39.6402 32.4373 39.2191 33.752 38.5198C35.0669 37.8206 36.1954 36.861 37.0555 35.7108L37.7553 34.7789C39.9248 31.8874 41.8396 28.8416 43.4817 25.6703L44.0104 24.6495C44.6618 23.3905 45 22.0141 45 20.6201C45 19.2262 44.6618 17.8497 44.0104 16.5907L43.4817 15.5741Z" fill="white"/>
</mask>
<g mask="url(#mask0_1_959)">
<rect width="45" height="41.3265" fill="#DFC9FF"/>
</g>
<g clip-path="url(#clip0_1_959)">
<path d="M14.0599 20.7533L30.8603 17.3153L32.4902 23.8339L15.6898 27.2719L14.0599 20.7533Z" fill="#27104A"/>
<path d="M18.7174 26.3289L17.9693 26.482L17.0894 22.963L17.8839 22.8004L18.248 24.2565C18.3007 24.1346 18.3966 24.0266 18.5358 23.9327C18.6777 23.835 18.8415 23.7671 19.0272 23.7291C19.2679 23.6799 19.4892 23.6902 19.6911 23.7601C19.8964 23.8293 20.0709 23.9489 20.2147 24.1189C20.3584 24.2891 20.4622 24.5017 20.526 24.7568C20.5859 24.9964 20.5855 25.2189 20.5248 25.4243C20.4667 25.6258 20.3556 25.7958 20.1913 25.934C20.0305 26.0717 19.828 26.1654 19.5838 26.2154C19.4049 26.252 19.2334 26.2527 19.0692 26.2177C18.9076 26.1788 18.7792 26.1135 18.684 26.0217L18.7174 26.3289ZM18.4737 25.1375C18.5025 25.2527 18.554 25.3501 18.6281 25.4298C18.7049 25.5056 18.796 25.5589 18.9013 25.5897C19.0093 25.6167 19.1252 25.6175 19.249 25.5921C19.3762 25.5661 19.4784 25.519 19.5553 25.451C19.6357 25.3822 19.6891 25.2993 19.7155 25.2024C19.7453 25.1046 19.7458 24.9982 19.717 24.8832C19.6882 24.768 19.6372 24.6721 19.5638 24.5956C19.4939 24.5183 19.4062 24.4644 19.3009 24.4335C19.1991 24.4021 19.0845 24.3993 18.9572 24.4254C18.8334 24.4507 18.7296 24.4981 18.6457 24.5676C18.5646 24.6333 18.5073 24.7153 18.4741 24.8137C18.4443 24.9113 18.4442 25.0193 18.4737 25.1375Z" fill="#DFC9FF"/>
<path d="M20.8367 24.6638C20.7753 24.418 20.7818 24.1911 20.8562 23.9829C20.9334 23.7709 21.0657 23.5917 21.2533 23.4454C21.4443 23.2984 21.6774 23.1967 21.9525 23.1404C22.2277 23.0841 22.4847 23.0855 22.7237 23.1445C22.9625 23.2035 23.1655 23.3141 23.3325 23.4761C23.5023 23.6344 23.6179 23.8364 23.6793 24.0822C23.7408 24.328 23.7325 24.5554 23.6547 24.7643C23.5801 24.9725 23.4491 25.1497 23.2616 25.2961C23.074 25.4424 22.8426 25.5436 22.5675 25.6C22.2924 25.6563 22.0336 25.6553 21.7913 25.5969C21.5524 25.5379 21.3481 25.4292 21.1783 25.271C21.0121 25.1121 20.8982 24.9096 20.8367 24.6638ZM21.6352 24.4956C21.6648 24.6138 21.7166 24.7128 21.7908 24.7925C21.8676 24.8683 21.9586 24.9217 22.064 24.9524C22.1685 24.9801 22.2826 24.9812 22.4065 24.9559C22.5302 24.9306 22.6327 24.8851 22.714 24.8194C22.7945 24.7506 22.8496 24.6673 22.8793 24.5697C22.9083 24.4689 22.9081 24.3593 22.8785 24.2411C22.849 24.1229 22.7975 24.0255 22.7241 23.949C22.6507 23.8724 22.5618 23.8203 22.4573 23.7926C22.352 23.7618 22.2374 23.7591 22.1136 23.7845C21.9897 23.8098 21.8876 23.8569 21.8072 23.9256C21.726 23.9913 21.6688 24.0734 21.6356 24.1717C21.6058 24.2694 21.6056 24.3773 21.6352 24.4956Z" fill="#DFC9FF"/>
<path d="M25.227 25.0607C24.9553 25.1163 24.7219 25.0937 24.5268 24.993C24.3343 24.8885 24.2098 24.7226 24.153 24.4954C24.0992 24.2808 24.1373 24.0931 24.267 23.9325C24.4002 23.7711 24.6189 23.6479 24.923 23.5628L25.6324 23.3636L25.6231 23.3263C25.6036 23.2485 25.5705 23.1882 25.5236 23.1455C25.476 23.0996 25.4164 23.0709 25.3448 23.0594C25.2759 23.0441 25.1933 23.0463 25.097 23.066C24.9285 23.1005 24.8065 23.1549 24.7311 23.2292C24.6591 23.3028 24.6364 23.3925 24.6628 23.4983L24.0025 23.6334C23.9581 23.456 23.9694 23.2918 24.0365 23.1407C24.1036 22.9896 24.2193 22.8597 24.3837 22.7508C24.5516 22.6412 24.7575 22.5615 25.0017 22.5115C25.2528 22.4601 25.4744 22.4573 25.6666 22.503C25.8623 22.548 26.0242 22.6391 26.1526 22.7764C26.2843 22.913 26.3782 23.0933 26.4342 23.3173L26.775 24.6801L26.0734 24.8237L25.9448 24.5262C25.93 24.6404 25.8541 24.7492 25.7173 24.8524C25.583 24.9518 25.4195 25.0212 25.227 25.0607ZM25.3725 24.4716C25.5239 24.4407 25.6395 24.3826 25.7194 24.2976C25.7986 24.2093 25.8216 24.0984 25.7881 23.9646L25.7566 23.8386L25.3624 23.9536C25.1935 24.0013 25.078 24.0527 25.0159 24.1079C24.9565 24.1594 24.936 24.2224 24.9548 24.297C24.9757 24.381 25.0206 24.4374 25.0891 24.4658C25.1577 24.4943 25.2522 24.4962 25.3725 24.4716Z" fill="#DFC9FF"/>
<path d="M28.5362 21.8666L28.7054 22.5433L28.4527 22.595C28.2256 22.6415 28.0593 22.7279 27.9535 22.8542C27.8511 22.9798 27.8287 23.1577 27.8862 23.388L28.1395 24.4007L27.345 24.5633L26.7627 22.2344L27.5108 22.0813L27.6975 22.568L27.6253 22.5828C27.6208 22.4202 27.6663 22.2768 27.7618 22.1526C27.8599 22.0246 28.0138 21.9391 28.2237 21.8962C28.2718 21.8863 28.3208 21.8796 28.3704 21.876C28.4228 21.8685 28.478 21.8654 28.5362 21.8666Z" fill="#DFC9FF"/>
<path d="M30.5443 23.9725C30.2967 24.0231 30.0693 24.0173 29.8621 23.9551C29.655 23.8928 29.4772 23.782 29.3289 23.6227C29.1833 23.4595 29.0797 23.255 29.0183 23.0092C28.956 22.7603 28.9531 22.5319 29.0096 22.3241C29.0653 22.1132 29.1746 21.9355 29.3372 21.791C29.5035 21.6458 29.7172 21.5465 29.9786 21.493C30.1402 21.4599 30.2964 21.4558 30.4472 21.4805C30.6015 21.5045 30.7273 21.5524 30.8247 21.624L30.4747 20.2239L31.2692 20.0613L32.149 23.5803L31.401 23.7334L31.2851 23.4431C31.2427 23.563 31.1545 23.6726 31.0203 23.7721C30.8887 23.8677 30.7301 23.9345 30.5443 23.9725ZM30.5706 23.2753C30.6945 23.25 30.797 23.2045 30.8781 23.1388C30.962 23.0693 31.0188 22.9857 31.0487 22.8881C31.0811 22.7866 31.083 22.6783 31.0542 22.5631C31.0246 22.4449 30.9714 22.3479 30.8946 22.272C30.8212 22.1954 30.7305 22.1437 30.6226 22.1167C30.5173 22.0859 30.4027 22.0832 30.2789 22.1086C30.1551 22.1339 30.053 22.1809 29.9726 22.2497C29.8921 22.3185 29.837 22.4018 29.8072 22.4994C29.7809 22.5964 29.7821 22.7025 29.8109 22.8176C29.8396 22.9327 29.889 23.0289 29.9589 23.1062C30.0323 23.1827 30.1217 23.2364 30.227 23.2672C30.3323 23.2979 30.4469 23.3007 30.5706 23.2753Z" fill="#DFC9FF"/>
<path d="M11.3916 14.8944L28.6636 14.7834L28.7161 21.4665L11.4441 21.5775L11.3916 14.8944Z" fill="#27104A"/>
<path d="M13.5547 18.5858C13.553 18.3721 13.6132 18.1835 13.7353 18.02C13.8574 17.8533 14.0257 17.7231 14.24 17.6292C14.4579 17.5321 14.7061 17.4826 14.9847 17.4808C15.2668 17.479 15.5104 17.5221 15.7157 17.6101C15.9209 17.6981 16.0788 17.8231 16.1894 17.9851C16.3035 18.1471 16.3614 18.3397 16.3632 18.563L15.5116 18.5685C15.5106 18.4441 15.4623 18.3471 15.3665 18.2775C15.2707 18.2047 15.1417 18.1689 14.9795 18.1699C14.8068 18.171 14.6677 18.2054 14.5625 18.2731C14.4607 18.3407 14.4103 18.4336 14.4113 18.5516C14.4121 18.6601 14.4445 18.7428 14.5084 18.7998C14.5724 18.8568 14.6732 18.8977 14.8109 18.9223L15.3989 19.0286C15.7484 19.0901 16.0085 19.2001 16.179 19.3585C16.3495 19.5137 16.4358 19.7317 16.438 20.0124C16.4398 20.2389 16.3797 20.4387 16.2576 20.6117C16.1355 20.7816 15.962 20.9135 15.737 21.0075C15.5156 21.1014 15.2551 21.1493 14.9553 21.1512C14.6662 21.1531 14.412 21.1101 14.1926 21.0222C13.9768 20.9342 13.8084 20.8093 13.6872 20.6474C13.5695 20.4822 13.5098 20.2896 13.5081 20.0695L14.3597 20.0641C14.3607 20.1917 14.4126 20.2902 14.5154 20.3597C14.6182 20.4293 14.7648 20.4634 14.9552 20.4622C15.1492 20.4609 15.3023 20.428 15.4146 20.3635C15.5269 20.2958 15.5827 20.2061 15.5818 20.0945C15.581 19.9956 15.5522 19.9192 15.4953 19.8653C15.442 19.8115 15.35 19.7738 15.2194 19.7523L14.6209 19.6461C14.2713 19.5845 14.0059 19.465 13.8246 19.2875C13.6469 19.11 13.5569 18.8761 13.5547 18.5858Z" fill="#DFC9FF"/>
<path d="M18.6512 18.6727L19.4657 18.6674L19.4845 21.0599L18.7176 21.0648L18.6626 20.7972C18.5823 20.8966 18.4665 20.9771 18.3154 21.0387C18.1678 21.1002 18.0146 21.1315 17.856 21.1326C17.5562 21.1345 17.3176 21.0515 17.1399 20.8835C16.9658 20.7124 16.8776 20.4801 16.8753 20.1866L16.8635 18.6841L17.678 18.6789L17.6877 19.9134C17.6892 20.108 17.7291 20.2513 17.8074 20.3433C17.8857 20.4321 18.0077 20.476 18.1735 20.475C18.3498 20.4738 18.4746 20.4299 18.548 20.3433C18.6248 20.2535 18.6625 20.1113 18.661 19.9167L18.6512 18.6727Z" fill="#DFC9FF"/>
<path d="M20.1046 22.2044L20.0768 18.6636L20.8438 18.6586L20.8884 18.9502C20.9615 18.8381 21.0754 18.7481 21.2301 18.6801C21.3847 18.6121 21.5554 18.5775 21.7423 18.5763C21.9892 18.5747 22.2064 18.6228 22.3941 18.7205C22.5817 18.8181 22.7292 18.9592 22.8364 19.1435C22.9436 19.3246 22.9982 19.5444 23.0002 19.8028C23.0023 20.0548 22.9547 20.28 22.8575 20.4784C22.7638 20.6736 22.624 20.8276 22.438 20.9405C22.2555 21.0533 22.032 21.1106 21.7675 21.1123C21.5842 21.1135 21.4147 21.0858 21.2591 21.0294C21.1035 20.973 20.9866 20.9004 20.9083 20.8116L20.9192 22.1992L20.1046 22.2044ZM20.9061 19.8545C20.907 19.9726 20.9343 20.0777 20.9879 20.1698C21.045 20.2588 21.1214 20.3285 21.217 20.3789C21.3161 20.4261 21.4291 20.4493 21.556 20.4485C21.6865 20.4477 21.7974 20.4214 21.8887 20.3698C21.9835 20.3182 22.0552 20.2475 22.1039 20.1579C22.156 20.0682 22.1817 19.9644 22.1808 19.8463C22.1798 19.7283 22.1526 19.6248 22.099 19.5358C22.0489 19.4468 21.9761 19.3771 21.8805 19.3267C21.7884 19.2762 21.6771 19.2514 21.5466 19.2523C21.4197 19.2531 21.3071 19.2793 21.2087 19.331C21.1139 19.3795 21.0386 19.4485 20.9829 19.5382C20.9307 19.6279 20.9051 19.7333 20.9061 19.8545Z" fill="#DFC9FF"/>
<path d="M24.7064 21.0885C24.4419 21.0903 24.2052 21.0375 23.9964 20.9304C23.791 20.8233 23.6276 20.676 23.5062 20.4885C23.3884 20.2979 23.3285 20.0798 23.3266 19.8341C23.3247 19.5853 23.3793 19.3664 23.4907 19.1775C23.6056 18.9854 23.7648 18.8344 23.9685 18.7246C24.1722 18.6149 24.4062 18.5591 24.6707 18.5574C24.9492 18.5556 25.1894 18.6067 25.3912 18.7107C25.5931 18.8115 25.7493 18.9572 25.8601 19.1479C25.9709 19.3354 26.0274 19.56 26.0294 19.8216L26.0309 20.0082L23.7566 20.0323L23.7636 19.5777L25.2182 19.5684C25.2172 19.4408 25.1687 19.3406 25.073 19.2678C24.9772 19.1919 24.8464 19.1544 24.6807 19.1555C24.5432 19.1564 24.4305 19.181 24.3427 19.2295C24.2584 19.2779 24.1956 19.3532 24.1541 19.4556C24.1125 19.5547 24.0924 19.6825 24.0936 19.8388C24.0953 20.0621 24.146 20.2276 24.2456 20.3355C24.3487 20.4401 24.506 20.4917 24.7176 20.4903C24.8727 20.4893 25.0012 20.4646 25.1032 20.4161C25.205 20.3676 25.2698 20.3002 25.2973 20.2139L26.0431 20.2091C25.9993 20.4741 25.8564 20.6872 25.6143 20.8482C25.3723 21.0061 25.0697 21.0862 24.7064 21.0885Z" fill="#DFC9FF"/>
<path d="M28.3221 18.6106L28.3275 19.3044L28.0684 19.3061C27.8357 19.3076 27.6527 19.3598 27.5194 19.4627C27.3898 19.5656 27.3259 19.7351 27.3277 19.9712L27.3359 21.0095L26.5214 21.0147L26.5026 18.6271L27.2696 18.6221L27.3371 19.1337L27.263 19.1342C27.2971 18.9745 27.3754 18.8432 27.498 18.7403C27.6241 18.6342 27.7947 18.5805 28.0098 18.5791C28.0591 18.5788 28.1085 18.5816 28.158 18.5877C28.2108 18.5906 28.2656 18.5982 28.3221 18.6106Z" fill="#DFC9FF"/>
</g>
<defs>
<clipPath id="clip0_1_959">
<rect width="21.8182" height="13.7755" fill="white" transform="translate(10.9091 13.7755)"/>
</clipPath>
</defs>
</svg>
